# xmcd CD database file
#
# Track frame offsets:
#	150
#	12656
#	28487
#	39591
#	50777
#	61805
#	73731
#	89115
#	101438
#	114807
#	132782
#	144347
#	158648
#	169790
#	182730
#	195030
#	207513
#	218400
#
# Disc length: 3099 seconds
#
# Revision: 0
# Processed by: cddbd v1.5.2PL0 Copyright (c) Steve Scherf et al.
# Submitted via: CDex 2.20
#
DISCID=fd0c1912
DTITLE=Dinah Washington - The Swingin' Miss "D"
DYEAR=1957
DGENRE=Jazz
TTITLE0=They Didn't Believe Me
TTITLE1=You're Crying
TTITLE2=Makin' Whoopee
TTITLE3=Ev'ry Time We Say Goodbye
TTITLE4=But Not For Me
TTITLE5=Caravan
TTITLE6=Perdido
TTITLE7=Never Let Me Go
TTITLE8=Is You Or Is You Ain't My Baby
TTITLE9=I'll Close My Eyes
TTITLE10=Somebody Loves Me
TTITLE11=I'll Drown In My Tears
TTITLE12=You Let My Love Grow Cold
TTITLE13=Bargain Day
TTITLE14=Relax Max
TTITLE15=Tears To Burn
TTITLE16=The Kissing Way Home
TTITLE17=I Know
EXTD=YEAR: 1957
EXTT0=
EXTT1=
EXTT2=
EXTT3=
EXTT4=
EXTT5=
EXTT6=
EXTT7=
EXTT8=
EXTT9=
EXTT10=
EXTT11=
EXTT12=
EXTT13=
EXTT14=
EXTT15=
EXTT16=
EXTT17=
PLAYORDER=
